<svg xmlns="http://www.w3.org/2000/svg" xmlns:xlink="http://www.w3.org/1999/xlink" viewBox="0 0 90 90"><defs><style>.cls-1{fill:url(#무제_그라디언트_68);}.cls-2{fill:url(#무제_그라디언트_67);}</style><linearGradient id="무제_그라디언트_68" x1="1.06" y1="26.07" x2="88.94" y2="63.93" gradientUnits="userSpaceOnUse"><stop offset="0" stop-color="#7e5a4c"/><stop offset="0.06" stop-color="#8c675d"/><stop offset="0.26" stop-color="#b38a8c"/><stop offset="0.41" stop-color="#cba1a9"/><stop offset="0.5" stop-color="#d4a9b4"/></linearGradient><linearGradient id="무제_그라디언트_67" x1="-3.29" y1="24.2" x2="93.29" y2="65.8" gradientTransform="translate(90 90) rotate(180)" gradientUnits="userSpaceOnUse"><stop offset="0" stop-color="#ab6853"/><stop offset="0.09" stop-color="#b07362"/><stop offset="0.4" stop-color="#c09791"/><stop offset="0.64" stop-color="#c9adae"/><stop offset="0.77" stop-color="#cdb5b9"/></linearGradient></defs><g id="padding"><rect class="cls-1" x="4.74" y="4.74" width="80.53" height="80.53" rx="16.13"/><path class="cls-2" d="M20.86,0H69.14A20.89,20.89,0,0,1,90,20.86V69.14A20.89,20.89,0,0,1,69.14,90H20.86A20.89,20.89,0,0,1,0,69.14V20.86A20.89,20.89,0,0,1,20.86,0ZM69.14,85.26A16.14,16.14,0,0,0,85.26,69.14V20.86A16.14,16.14,0,0,0,69.14,4.74H20.86A16.14,16.14,0,0,0,4.74,20.86V69.14A16.14,16.14,0,0,0,20.86,85.26Z"/></g></svg>